<svg width="643" height="160" viewBox="0 0 643 160" fill="none" xmlns="http://www.w3.org/2000/svg">
<path d="M641.917 77.7081H581.156C583.599 89.3107 592.911 95.7227 605.582 95.7227C614.284 95.7227 620.849 92.5167 625.276 86.2574L638.864 94.196C631.383 105.341 620.238 110.837 605.43 110.837C593.064 110.837 582.988 107.02 575.355 99.5393C567.721 91.906 563.905 82.2881 563.905 70.6854C563.905 59.2354 567.721 49.7701 575.202 42.1368C582.682 34.3508 592.453 30.5342 604.208 30.5342C615.353 30.5342 624.513 34.5035 631.688 42.2895C638.864 50.0755 642.528 59.6934 642.528 70.8381C642.528 72.5174 642.375 74.8074 641.917 77.7081ZM581.003 64.2734H625.887C623.597 51.9075 614.895 45.4955 604.056 45.4955C591.842 45.4955 583.293 52.6708 581.003 64.2734Z" fill="#BFF102"/>
<path d="M534.31 43.8161V32.5188H550.493V105.341C550.493 116.943 546.676 125.798 539.043 132.057C531.409 138.317 522.097 141.37 511.257 141.37C493.701 141.37 481.64 135.263 475.076 122.897L489.273 114.653C493.243 122.439 500.723 126.409 511.563 126.409C525.761 126.409 534.31 118.623 534.31 105.341V96.028C528.051 104.883 519.196 109.31 507.746 109.31C496.907 109.31 487.899 105.493 480.419 97.86C472.938 90.074 469.274 80.7614 469.274 69.9221C469.274 59.0828 472.938 49.7701 480.419 42.1368C487.899 34.3508 496.907 30.5342 507.746 30.5342C519.196 30.5342 528.051 34.9615 534.31 43.8161ZM492.632 87.0207C497.365 91.6007 503.166 93.8907 510.036 93.8907C516.906 93.8907 522.707 91.6007 527.287 87.0207C532.02 82.4407 534.31 76.7921 534.31 69.9221C534.31 63.0521 532.02 57.4034 527.287 52.8235C522.707 48.2435 516.906 45.9535 510.036 45.9535C503.166 45.9535 497.365 48.2435 492.632 52.8235C488.052 57.4034 485.762 63.0521 485.762 69.9221C485.762 76.7921 488.052 82.4407 492.632 87.0207Z" fill="#BFF102"/>
<path d="M439.363 43.3581V32.5188H455.851V108.852H439.363V97.86C433.104 106.562 424.249 110.837 412.646 110.837C402.112 110.837 393.258 107.02 385.777 99.234C378.296 91.448 374.632 81.8301 374.632 70.6854C374.632 59.3881 378.296 49.9228 385.777 42.1368C393.258 34.3508 402.112 30.5342 412.646 30.5342C424.249 30.5342 433.104 34.8088 439.363 43.3581ZM397.99 88.242C402.57 92.822 408.372 95.112 415.242 95.112C422.112 95.112 427.913 92.822 432.493 88.242C437.073 83.5094 439.363 77.7081 439.363 70.6854C439.363 63.6628 437.073 57.8614 432.493 53.2815C427.913 48.5488 422.112 46.2588 415.242 46.2588C408.372 46.2588 402.57 48.5488 397.99 53.2815C393.41 57.8614 391.12 63.6628 391.12 70.6854C391.12 77.7081 393.41 83.5094 397.99 88.242Z" fill="#BFF102"/>
<path d="M368.613 32.5164V48.3936H349.682V85.0336C349.682 94.8042 356.094 94.6515 368.613 94.0409V108.849C343.423 111.903 333.194 105.033 333.194 85.0336V48.3936H319.149V32.5164H333.194V16.0284L349.682 11.1431V32.5164H368.613Z" fill="#BFF102"/>
<path d="M307.485 18.0146C303.363 22.1366 296.951 22.1366 292.676 18.0146C288.554 13.74 288.554 7.32798 292.676 3.20599C296.798 -1.06866 303.515 -1.06866 307.637 3.20599C311.759 7.32798 311.759 13.74 307.485 18.0146ZM308.401 108.851H291.913V32.5179H308.401V108.851Z" fill="#BFF102"/>
<path d="M257.752 32.52V45.344C261.874 35.8787 269.812 31.146 281.262 31.146V49.008C275.003 48.55 269.507 50.0766 264.774 53.5879C260.042 56.9466 257.752 62.5953 257.752 70.3812V108.853H241.264V32.52H257.752Z" fill="#BFF102"/>
<path d="M227.67 77.7081H166.909C169.351 89.3107 178.664 95.7227 191.335 95.7227C200.037 95.7227 206.602 92.5167 211.029 86.2574L224.616 94.196C217.136 105.341 205.991 110.837 191.182 110.837C178.816 110.837 168.741 107.02 161.107 99.5393C153.474 91.906 149.657 82.2881 149.657 70.6854C149.657 59.2354 153.474 49.7701 160.955 42.1368C168.435 34.3508 178.206 30.5342 189.961 30.5342C201.106 30.5342 210.266 34.5035 217.441 42.2895C224.616 50.0755 228.28 59.6934 228.28 70.8381C228.28 72.5174 228.128 74.8074 227.67 77.7081ZM166.756 64.2734H211.64C209.35 51.9075 200.648 45.4955 189.808 45.4955C177.595 45.4955 169.046 52.6708 166.756 64.2734Z" fill="#BFF102"/>
<path d="M11.1643 23.6823C32.2526 18.7193 56.7286 19.903 79.6255 31.5108C102.689 43.2035 126.769 67.4822 134.947 106.851L135.237 108.244H118.194L117.95 107.414C108.069 73.9312 90.8478 55.3627 72.2987 45.9588C57.4229 38.4177 41.0689 36.4608 25.8269 38.1167C32.1188 46.3576 39.6288 52.6888 48.4651 57.2948C57.4899 61.9991 68.1538 65.0349 80.7239 66.285C88.8705 67.0951 95.6323 73.6422 95.6329 81.9782V83.1353H94.4758C73.8748 83.1353 56.0185 79.5006 40.9755 71.6592C25.8526 63.7758 14.0492 51.888 5.25443 36.1845L0 26.8056L11.1643 23.6823Z" fill="#BFF102"/>
<path d="M54.25 84.7535C59.8431 86.5024 65.6991 87.817 71.8077 88.7311V108.852H54.25V84.7535ZM135.164 33.1833C128.618 34.3672 122.526 37.0162 117.62 40.8513V11.6548H117.606V1.98438H135.164V33.1833ZM71.8077 38.6162L54.25 36.4218V1.98438H71.8077V38.6162Z" fill="#BFF102"/>
<path d="M99.1216 61.3275C100.837 36.8567 125.896 23.38 148.454 25.8392L155.176 26.5714V33.3625C153.524 53.4691 133.34 74.0814 104.747 68.6317L98.6899 67.4769L99.1216 61.3275ZM138.854 39.625C127.587 40.8319 118.299 47.1323 114.62 55.603C126.671 55.2776 135.197 47.9975 138.854 39.625Z" fill="#BFF102"/>
<path d="M440.833 159.906C432.701 159.906 427.185 156.153 424.911 150.069L432.758 145.519C434.35 149.216 437.137 151.035 441.118 151.035C444.7 151.035 446.52 149.955 446.52 147.794C446.52 146.6 445.951 145.69 444.757 145.064C443.62 144.382 441.459 143.586 438.274 142.733C434.919 141.823 432.644 140.799 430.199 138.98C427.868 137.103 426.56 134.26 426.56 130.62C426.56 126.924 427.868 124.024 430.484 121.806C433.156 119.588 436.284 118.508 439.923 118.508C446.463 118.508 451.581 121.635 454.481 127.493L446.804 131.985C445.382 128.971 443.392 127.379 439.923 127.379C437.194 127.379 435.658 128.744 435.658 130.393C435.658 131.36 436.113 132.213 437.023 132.952C437.99 133.691 439.923 134.487 442.823 135.34L446.52 136.534C447.373 136.819 448.51 137.331 449.818 138.07C451.183 138.752 452.206 139.491 452.889 140.288C454.31 141.823 455.618 144.439 455.618 147.68C455.618 151.49 454.254 154.447 451.524 156.665C448.794 158.826 445.212 159.906 440.833 159.906Z" fill="#BFF102"/>
<path d="M401.845 119.303H410.944V159.11H401.845V135.965L391.552 152.854H390.529L380.236 135.965V159.11H371.137V119.303H380.236L391.041 136.989L401.845 119.303Z" fill="#BFF102"/>
<path d="M357.196 159.11H347.415L339.908 146.03H335.587V159.11H326.488V119.303H342.411C346.221 119.303 349.405 120.611 352.078 123.284C354.751 125.957 356.058 129.141 356.058 132.951C356.058 137.785 353.101 142.22 348.723 144.495L357.196 159.11ZM342.411 127.833H335.587V138.069H342.411C344.913 138.069 346.96 135.851 346.96 132.951C346.96 130.051 344.913 127.833 342.411 127.833Z" fill="#BFF102"/>
<path d="M313.422 159.11H303.471L301.481 152.854H286.695L284.705 159.11H274.753L288.288 119.303H299.888L313.422 159.11ZM294.088 129.71L289.425 144.324H298.751L294.088 129.71Z" fill="#BFF102"/>
<path d="M264.847 119.303V128.061H249.777V135.738H264.562V144.495H249.777V159.11H240.678V119.303H264.847Z" fill="#BFF102"/>
</svg>
