<svg width="643" height="161" viewBox="0 0 643 161" fill="none" xmlns="http://www.w3.org/2000/svg">
<path d="M642.389 78.6201H581.583C584.027 90.2313 593.347 96.648 606.028 96.648C614.736 96.648 621.305 93.4396 625.736 87.1757L639.333 95.1202C631.847 106.273 620.694 111.773 605.875 111.773C593.5 111.773 583.416 107.954 575.777 100.467C568.138 92.8285 564.319 83.2034 564.319 71.5922C564.319 60.1338 568.138 50.6615 575.624 43.0226C583.111 35.2308 592.889 31.4114 604.653 31.4114C615.805 31.4114 624.972 35.3836 632.153 43.1754C639.333 50.9671 643 60.5921 643 71.745C643 73.4256 642.847 75.7173 642.389 78.6201ZM581.43 65.1755H626.347C624.055 52.8004 615.347 46.3837 604.5 46.3837C592.277 46.3837 583.722 53.5643 581.43 65.1755Z" fill="#3A7817"/>
<path d="M534.703 44.7031V33.3975H550.898V106.273C550.898 117.884 547.078 126.745 539.439 133.009C531.8 139.273 522.481 142.329 511.633 142.329C494.064 142.329 481.994 136.218 475.425 123.843L489.633 115.593C493.605 123.384 501.092 127.357 511.939 127.357C526.147 127.357 534.703 119.565 534.703 106.273V96.9535C528.439 105.815 519.578 110.245 508.119 110.245C497.272 110.245 488.258 106.426 480.772 98.7869C473.286 90.9952 469.619 81.6756 469.619 70.8283C469.619 59.981 473.286 50.6615 480.772 43.0226C488.258 35.2308 497.272 31.4114 508.119 31.4114C519.578 31.4114 528.439 35.842 534.703 44.7031ZM492.994 87.9396C497.73 92.5229 503.536 94.8146 510.411 94.8146C517.286 94.8146 523.092 92.5229 527.675 87.9396C532.411 83.3562 534.703 77.7034 534.703 70.8283C534.703 63.9533 532.411 58.3005 527.675 53.7171C523.092 49.1337 517.286 46.842 510.411 46.842C503.536 46.842 497.73 49.1337 492.994 53.7171C488.411 58.3005 486.119 63.9533 486.119 70.8283C486.119 77.7034 488.411 83.3562 492.994 87.9396Z" fill="#3A7817"/>
<path d="M439.686 44.2448V33.3975H456.186V109.787H439.686V98.7869C433.422 107.495 424.561 111.773 412.95 111.773C402.408 111.773 393.547 107.954 386.061 100.162C378.575 92.3702 374.908 82.7451 374.908 71.5922C374.908 60.2866 378.575 50.8143 386.061 43.0226C393.547 35.2308 402.408 31.4114 412.95 31.4114C424.561 31.4114 433.422 35.6892 439.686 44.2448ZM398.283 89.1618C402.867 93.7452 408.672 96.0369 415.547 96.0369C422.422 96.0369 428.228 93.7452 432.811 89.1618C437.395 84.4257 439.686 78.6201 439.686 71.5922C439.686 64.5644 437.395 58.7588 432.811 54.1754C428.228 49.4393 422.422 47.1476 415.547 47.1476C408.672 47.1476 402.867 49.4393 398.283 54.1754C393.7 58.7588 391.408 64.5644 391.408 71.5922C391.408 78.6201 393.7 84.4257 398.283 89.1618Z" fill="#3A7817"/>
<path d="M368.885 33.3954V49.2844H349.941V85.9514C349.941 95.7292 356.357 95.5764 368.885 94.9653V109.785C343.677 112.84 333.44 105.965 333.44 85.9514V49.2844H319.385V33.3954H333.44V16.8953L349.941 12.0063V33.3954H368.885Z" fill="#3A7817"/>
<path d="M307.71 18.8827C303.585 23.0077 297.168 23.0077 292.891 18.8827C288.766 14.6048 288.766 8.18813 292.891 4.06309C297.016 -0.214716 303.738 -0.214716 307.863 4.06309C311.988 8.18813 311.988 14.6048 307.71 18.8827ZM308.627 109.786H292.127V33.3967H308.627V109.786Z" fill="#3A7817"/>
<path d="M257.942 33.3975V46.2309C262.067 36.7586 270.011 32.0225 281.469 32.0225V49.8976C275.206 49.4393 269.706 50.967 264.969 54.481C260.233 57.8421 257.942 63.4949 257.942 71.2866V109.787H241.441V33.3975H257.942Z" fill="#3A7817"/>
<path d="M227.836 78.6201H167.03C169.475 90.2313 178.794 96.648 191.475 96.648C200.183 96.648 206.753 93.4396 211.183 87.1757L224.781 95.1202C217.294 106.273 206.142 111.773 191.322 111.773C178.947 111.773 168.863 107.954 161.225 100.467C153.586 92.8285 149.766 83.2034 149.766 71.5922C149.766 60.1338 153.586 50.6615 161.072 43.0226C168.558 35.2308 178.336 31.4114 190.1 31.4114C201.253 31.4114 210.419 35.3836 217.6 43.1754C224.781 50.9671 228.447 60.5921 228.447 71.745C228.447 73.4256 228.294 75.7173 227.836 78.6201ZM166.877 65.1755H211.794C209.503 52.8004 200.794 46.3837 189.947 46.3837C177.725 46.3837 169.169 53.5643 166.877 65.1755Z" fill="#3A7817"/>
<path d="M11.1725 24.5545C32.2764 19.5878 56.7705 20.7724 79.6843 32.3888C102.765 44.0901 126.863 68.3867 135.047 107.785L135.336 109.178H118.281L118.037 108.348C108.149 74.8405 90.9148 56.2582 72.3521 46.8474C57.4653 39.3007 41.0992 37.3424 25.846 38.9995C32.1425 47.2465 39.658 53.5823 48.5008 58.1918C57.5323 62.8995 68.2041 65.9376 80.7834 67.1886C88.9361 67.9993 95.7029 74.5512 95.7035 82.8934V84.0514H94.5455C73.9293 84.0514 56.0598 80.4139 41.0058 72.5668C25.8717 64.6776 14.0596 52.7809 5.25831 37.0658L0 27.68L11.1725 24.5545Z" fill="#3A7817"/>
<path d="M54.29 85.6713C59.8872 87.4214 65.7476 88.7371 71.8607 89.6518V109.787H54.29V85.6713ZM135.263 34.063C128.713 35.2477 122.617 37.8987 117.706 41.7367V12.5186H117.693V2.84106H135.263V34.063ZM71.8607 39.5L54.29 37.3039V2.84106H71.8607V39.5Z" fill="#3A7817"/>
<path d="M99.1939 62.2274C100.91 37.7386 125.988 24.252 148.563 26.7129L155.289 27.4457V34.2418C153.637 54.3633 133.437 74.9907 104.823 69.537L98.762 68.3813L99.1939 62.2274ZM138.956 40.5089C127.68 41.7167 118.386 48.0217 114.704 56.4987C126.764 56.1731 135.296 48.8876 138.956 40.5089Z" fill="#3A7817"/>
<path d="M441.156 160.878C433.018 160.878 427.498 157.122 425.222 151.033L433.075 146.48C434.669 150.179 437.457 152 441.441 152C445.026 152 446.847 150.919 446.847 148.756C446.847 147.561 446.278 146.651 445.083 146.025C443.945 145.342 441.782 144.545 438.595 143.692C435.238 142.781 432.961 141.757 430.514 139.936C428.181 138.058 426.872 135.212 426.872 131.57C426.872 127.871 428.181 124.969 430.799 122.749C433.474 120.53 436.604 119.449 440.246 119.449C446.79 119.449 451.912 122.579 454.814 128.44L447.132 132.936C445.709 129.92 443.717 128.326 440.246 128.326C437.514 128.326 435.978 129.692 435.978 131.343C435.978 132.31 436.433 133.164 437.343 133.903C438.311 134.643 440.246 135.44 443.148 136.294L446.847 137.489C447.701 137.773 448.839 138.285 450.148 139.025C451.513 139.708 452.538 140.448 453.221 141.245C454.643 142.781 455.952 145.399 455.952 148.643C455.952 152.455 454.587 155.415 451.855 157.634C449.123 159.797 445.538 160.878 441.156 160.878Z" fill="#00312D"/>
<path d="M402.14 120.246H411.245V160.081H402.14V136.92L391.839 153.821H390.815L380.515 136.92V160.081H371.409V120.246H380.515L391.327 137.944L402.14 120.246Z" fill="#00312D"/>
<path d="M357.457 160.081H347.669L340.157 146.992H335.832V160.081H326.727V120.246H342.661C346.474 120.246 349.661 121.554 352.335 124.229C355.01 126.904 356.319 130.091 356.319 133.904C356.319 138.741 353.36 143.18 348.978 145.456L357.457 160.081ZM342.661 128.782H335.832V139.025H342.661C345.165 139.025 347.214 136.806 347.214 133.904C347.214 131.001 345.165 128.782 342.661 128.782Z" fill="#00312D"/>
<path d="M313.652 160.081H303.693L301.701 153.821H286.905L284.913 160.081H274.954L288.498 120.246H300.108L313.652 160.081ZM294.303 130.66L289.636 145.285H298.969L294.303 130.66Z" fill="#00312D"/>
<path d="M265.041 120.246V129.009H249.96V136.692H264.756V145.456H249.96V160.081H240.855V120.246H265.041Z" fill="#00312D"/>
</svg>
