<svg width="643" height="160" viewBox="0 0 643 160" fill="none" xmlns="http://www.w3.org/2000/svg">
<path d="M641.917 77.7076H581.156C583.599 89.3102 592.911 95.7222 605.582 95.7222C614.284 95.7222 620.849 92.5162 625.276 86.2569L638.864 94.1955C631.383 105.34 620.238 110.836 605.43 110.836C593.064 110.836 582.988 107.02 575.355 99.5389C567.721 91.9055 563.905 82.2876 563.905 70.6849C563.905 59.235 567.721 49.7696 575.202 42.1363C582.682 34.3503 592.453 30.5337 604.208 30.5337C615.353 30.5337 624.513 34.503 631.688 42.289C638.864 50.075 642.528 59.6929 642.528 70.8376C642.528 72.5169 642.375 74.8069 641.917 77.7076ZM581.003 64.2729H625.887C623.597 51.907 614.895 45.495 604.056 45.495C591.842 45.495 583.293 52.6703 581.003 64.2729Z" fill="white"/>
<path d="M534.31 43.8157V32.5184H550.493V105.34C550.493 116.943 546.676 125.797 539.043 132.057C531.409 138.316 522.097 141.369 511.257 141.369C493.701 141.369 481.64 135.263 475.076 122.897L489.273 114.653C493.243 122.439 500.723 126.408 511.563 126.408C525.761 126.408 534.31 118.622 534.31 105.34V96.0275C528.051 104.882 519.196 109.309 507.746 109.309C496.907 109.309 487.899 105.493 480.419 97.8595C472.938 90.0735 469.274 80.7609 469.274 69.9216C469.274 59.0823 472.938 49.7696 480.419 42.1363C487.899 34.3503 496.907 30.5337 507.746 30.5337C519.196 30.5337 528.051 34.961 534.31 43.8157ZM492.632 87.0202C497.365 91.6002 503.166 93.8902 510.036 93.8902C516.906 93.8902 522.707 91.6002 527.287 87.0202C532.02 82.4402 534.31 76.7916 534.31 69.9216C534.31 63.0516 532.02 57.403 527.287 52.823C522.707 48.243 516.906 45.953 510.036 45.953C503.166 45.953 497.365 48.243 492.632 52.823C488.052 57.403 485.762 63.0516 485.762 69.9216C485.762 76.7916 488.052 82.4402 492.632 87.0202Z" fill="white"/>
<path d="M439.363 43.3577V32.5184H455.851V108.851H439.363V97.8595C433.104 106.562 424.249 110.836 412.646 110.836C402.112 110.836 393.258 107.02 385.777 99.2335C378.296 91.4475 374.632 81.8296 374.632 70.6849C374.632 59.3876 378.296 49.9223 385.777 42.1363C393.258 34.3503 402.112 30.5337 412.646 30.5337C424.249 30.5337 433.104 34.8083 439.363 43.3577ZM397.99 88.2415C402.57 92.8215 408.372 95.1115 415.242 95.1115C422.112 95.1115 427.913 92.8215 432.493 88.2415C437.073 83.5089 439.363 77.7076 439.363 70.6849C439.363 63.6623 437.073 57.861 432.493 53.281C427.913 48.5483 422.112 46.2583 415.242 46.2583C408.372 46.2583 402.57 48.5483 397.99 53.281C393.41 57.861 391.12 63.6623 391.12 70.6849C391.12 77.7076 393.41 83.5089 397.99 88.2415Z" fill="white"/>
<path d="M368.613 32.5173V48.3946H349.682V85.0345C349.682 94.8052 356.094 94.6525 368.613 94.0418V108.85C343.423 111.904 333.194 105.034 333.194 85.0345V48.3946H319.149V32.5173H333.194V16.0294L349.682 11.144V32.5173H368.613Z" fill="white"/>
<path d="M307.485 18.0146C303.363 22.1366 296.951 22.1366 292.676 18.0146C288.554 13.74 288.554 7.32798 292.676 3.20599C296.798 -1.06866 303.515 -1.06866 307.637 3.20599C311.759 7.32798 311.759 13.74 307.485 18.0146ZM308.401 108.851H291.913V32.5179H308.401V108.851Z" fill="white"/>
<path d="M257.752 32.518V45.342C261.874 35.8767 269.812 31.144 281.262 31.144V49.006C275.003 48.548 269.507 50.0747 264.774 53.586C260.042 56.9446 257.752 62.5933 257.752 70.3793V108.851H241.264V32.518H257.752Z" fill="white"/>
<path d="M227.67 77.7076H166.909C169.351 89.3102 178.664 95.7222 191.335 95.7222C200.037 95.7222 206.602 92.5162 211.029 86.2569L224.616 94.1955C217.136 105.34 205.991 110.836 191.182 110.836C178.816 110.836 168.741 107.02 161.107 99.5389C153.474 91.9055 149.657 82.2876 149.657 70.6849C149.657 59.235 153.474 49.7696 160.955 42.1363C168.435 34.3503 178.206 30.5337 189.961 30.5337C201.106 30.5337 210.266 34.503 217.441 42.289C224.616 50.075 228.28 59.6929 228.28 70.8376C228.28 72.5169 228.128 74.8069 227.67 77.7076ZM166.756 64.2729H211.64C209.35 51.907 200.648 45.495 189.808 45.495C177.595 45.495 169.046 52.6703 166.756 64.2729Z" fill="white"/>
<path d="M11.1643 23.6823C32.2526 18.7193 56.7286 19.903 79.6255 31.5108C102.689 43.2035 126.769 67.4822 134.947 106.851L135.237 108.244H118.194L117.95 107.414C108.069 73.9312 90.8478 55.3627 72.2987 45.9588C57.4229 38.4177 41.0689 36.4608 25.8269 38.1167C32.1188 46.3576 39.6288 52.6888 48.4651 57.2948C57.4899 61.9991 68.1538 65.0349 80.7239 66.285C88.8705 67.0951 95.6323 73.6422 95.6329 81.9782V83.1353H94.4758C73.8748 83.1353 56.0185 79.5006 40.9755 71.6592C25.8526 63.7758 14.0492 51.888 5.25443 36.1845L0 26.8056L11.1643 23.6823Z" fill="white"/>
<path d="M54.25 84.7535C59.8431 86.5024 65.6991 87.817 71.8077 88.7311V108.852H54.25V84.7535ZM135.164 33.1833C128.618 34.3672 122.526 37.0162 117.62 40.8513V11.6548H117.606V1.98438H135.164V33.1833ZM71.8077 38.6162L54.25 36.4218V1.98438H71.8077V38.6162Z" fill="white"/>
<path d="M99.1216 61.3275C100.837 36.8567 125.896 23.38 148.454 25.8392L155.176 26.5714V33.3625C153.524 53.4691 133.34 74.0814 104.747 68.6317L98.6899 67.4769L99.1216 61.3275ZM138.854 39.625C127.587 40.8319 118.299 47.1323 114.62 55.603C126.671 55.2776 135.197 47.9975 138.854 39.625Z" fill="white"/>
<path d="M440.833 159.904C432.701 159.904 427.185 156.151 424.911 150.067L432.758 145.517C434.35 149.214 437.137 151.033 441.118 151.033C444.7 151.033 446.52 149.953 446.52 147.792C446.52 146.598 445.951 145.688 444.757 145.062C443.62 144.38 441.459 143.584 438.274 142.731C434.919 141.821 432.644 140.797 430.199 138.978C427.868 137.101 426.56 134.258 426.56 130.618C426.56 126.922 427.868 124.022 430.484 121.804C433.156 119.586 436.284 118.506 439.923 118.506C446.463 118.506 451.581 121.634 454.481 127.491L446.804 131.983C445.382 128.969 443.392 127.377 439.923 127.377C437.194 127.377 435.658 128.742 435.658 130.391C435.658 131.358 436.113 132.211 437.023 132.95C437.99 133.689 439.923 134.485 442.823 135.338L446.52 136.532C447.373 136.817 448.51 137.329 449.818 138.068C451.183 138.75 452.206 139.489 452.889 140.286C454.31 141.821 455.618 144.437 455.618 147.678C455.618 151.488 454.254 154.445 451.524 156.663C448.794 158.824 445.212 159.904 440.833 159.904Z" fill="white"/>
<path d="M401.845 119.303H410.944V159.11H401.845V135.965L391.552 152.854H390.529L380.236 135.965V159.11H371.137V119.303H380.236L391.041 136.989L401.845 119.303Z" fill="white"/>
<path d="M357.196 159.11H347.415L339.908 146.03H335.587V159.11H326.488V119.303H342.411C346.221 119.303 349.405 120.611 352.078 123.284C354.751 125.957 356.058 129.141 356.058 132.951C356.058 137.785 353.101 142.22 348.723 144.495L357.196 159.11ZM342.411 127.833H335.587V138.069H342.411C344.913 138.069 346.96 135.851 346.96 132.951C346.96 130.051 344.913 127.833 342.411 127.833Z" fill="white"/>
<path d="M313.422 159.11H303.471L301.481 152.854H286.695L284.705 159.11H274.753L288.288 119.303H299.888L313.422 159.11ZM294.088 129.71L289.425 144.324H298.751L294.088 129.71Z" fill="white"/>
<path d="M264.847 119.303V128.061H249.777V135.738H264.562V144.495H249.777V159.11H240.678V119.303H264.847Z" fill="white"/>
</svg>
