<svg width="643" height="160" viewBox="0 0 643 160" fill="none" xmlns="http://www.w3.org/2000/svg">
<path d="M641.917 77.7076H581.156C583.599 89.3102 592.911 95.7222 605.582 95.7222C614.284 95.7222 620.849 92.5162 625.276 86.2569L638.864 94.1955C631.383 105.34 620.238 110.836 605.43 110.836C593.064 110.836 582.988 107.02 575.355 99.5389C567.721 91.9055 563.905 82.2876 563.905 70.6849C563.905 59.235 567.721 49.7696 575.202 42.1363C582.682 34.3503 592.453 30.5337 604.208 30.5337C615.353 30.5337 624.513 34.503 631.688 42.289C638.864 50.075 642.528 59.6929 642.528 70.8376C642.528 72.5169 642.375 74.8069 641.917 77.7076ZM581.003 64.2729H625.887C623.597 51.907 614.895 45.495 604.056 45.495C591.842 45.495 583.293 52.6703 581.003 64.2729Z" fill="#00312D"/>
<path d="M534.31 43.8157V32.5184H550.493V105.34C550.493 116.943 546.676 125.797 539.043 132.057C531.409 138.316 522.097 141.369 511.257 141.369C493.701 141.369 481.64 135.263 475.076 122.897L489.273 114.653C493.243 122.439 500.723 126.408 511.563 126.408C525.761 126.408 534.31 118.622 534.31 105.34V96.0275C528.051 104.882 519.196 109.309 507.746 109.309C496.907 109.309 487.899 105.493 480.419 97.8595C472.938 90.0735 469.274 80.7609 469.274 69.9216C469.274 59.0823 472.938 49.7696 480.419 42.1363C487.899 34.3503 496.907 30.5337 507.746 30.5337C519.196 30.5337 528.051 34.961 534.31 43.8157ZM492.632 87.0202C497.365 91.6002 503.166 93.8902 510.036 93.8902C516.906 93.8902 522.707 91.6002 527.287 87.0202C532.02 82.4402 534.31 76.7916 534.31 69.9216C534.31 63.0516 532.02 57.403 527.287 52.823C522.707 48.243 516.906 45.953 510.036 45.953C503.166 45.953 497.365 48.243 492.632 52.823C488.052 57.403 485.762 63.0516 485.762 69.9216C485.762 76.7916 488.052 82.4402 492.632 87.0202Z" fill="#00312D"/>
<path d="M439.363 43.3577V32.5184H455.851V108.851H439.363V97.8595C433.104 106.562 424.249 110.836 412.646 110.836C402.112 110.836 393.258 107.02 385.777 99.2335C378.296 91.4475 374.632 81.8296 374.632 70.6849C374.632 59.3876 378.296 49.9223 385.777 42.1363C393.258 34.3503 402.112 30.5337 412.646 30.5337C424.249 30.5337 433.104 34.8083 439.363 43.3577ZM397.99 88.2415C402.57 92.8215 408.372 95.1115 415.242 95.1115C422.112 95.1115 427.913 92.8215 432.493 88.2415C437.073 83.5089 439.363 77.7076 439.363 70.6849C439.363 63.6623 437.073 57.861 432.493 53.281C427.913 48.5483 422.112 46.2583 415.242 46.2583C408.372 46.2583 402.57 48.5483 397.99 53.281C393.41 57.861 391.12 63.6623 391.12 70.6849C391.12 77.7076 393.41 83.5089 397.99 88.2415Z" fill="#00312D"/>
<path d="M368.613 32.5159V48.3932H349.682V85.0331C349.682 94.8037 356.094 94.651 368.613 94.0404V108.849C343.423 111.902 333.194 105.032 333.194 85.0331V48.3932H319.149V32.5159H333.194V16.0279L349.682 11.1426V32.5159H368.613Z" fill="#00312D"/>
<path d="M307.485 18.0146C303.363 22.1366 296.951 22.1366 292.676 18.0146C288.554 13.74 288.554 7.32798 292.676 3.20599C296.798 -1.06866 303.515 -1.06866 307.637 3.20599C311.759 7.32798 311.759 13.74 307.485 18.0146ZM308.401 108.851H291.913V32.5179H308.401V108.851Z" fill="#00312D"/>
<path d="M257.752 32.5195V45.3435C261.874 35.8782 269.812 31.1455 281.262 31.1455V49.0075C275.003 48.5495 269.507 50.0761 264.774 53.5875C260.042 56.9461 257.752 62.5948 257.752 70.3807V108.853H241.264V32.5195H257.752Z" fill="#00312D"/>
<path d="M227.67 77.7076H166.909C169.351 89.3102 178.664 95.7222 191.335 95.7222C200.037 95.7222 206.602 92.5162 211.029 86.2569L224.616 94.1955C217.136 105.34 205.991 110.836 191.182 110.836C178.816 110.836 168.741 107.02 161.107 99.5389C153.474 91.9055 149.657 82.2876 149.657 70.6849C149.657 59.235 153.474 49.7696 160.955 42.1363C168.435 34.3503 178.206 30.5337 189.961 30.5337C201.106 30.5337 210.266 34.503 217.441 42.289C224.616 50.075 228.28 59.6929 228.28 70.8376C228.28 72.5169 228.128 74.8069 227.67 77.7076ZM166.756 64.2729H211.64C209.35 51.907 200.648 45.495 189.808 45.495C177.595 45.495 169.046 52.6703 166.756 64.2729Z" fill="#00312D"/>
<path d="M11.1643 23.6828C32.2526 18.7198 56.7286 19.9035 79.6255 31.5113C102.689 43.204 126.769 67.4827 134.947 106.852L135.237 108.244H118.194L117.95 107.415C108.069 73.9317 90.8478 55.3631 72.2987 45.9593C57.4229 38.4182 41.0689 36.4613 25.8269 38.1172C32.1188 46.3581 39.6288 52.6893 48.4651 57.2953C57.4899 61.9996 68.1538 65.0354 80.7239 66.2855C88.8705 67.0956 95.6323 73.6427 95.6329 81.9787V83.1358H94.4758C73.8748 83.1358 56.0185 79.501 40.9755 71.6597C25.8526 63.7763 14.0492 51.8884 5.25443 36.1849L0 26.8061L11.1643 23.6828Z" fill="#00312D"/>
<path d="M54.25 84.7545C59.8431 86.5033 65.6991 87.818 71.8077 88.7321V108.853H54.25V84.7545ZM135.164 33.1842C128.618 34.3681 122.526 37.0171 117.62 40.8523V11.6558H117.606V1.98535H135.164V33.1842ZM71.8077 38.6172L54.25 36.4228V1.98535H71.8077V38.6172Z" fill="#00312D"/>
<path d="M99.1216 61.3285C100.837 36.8577 125.896 23.381 148.454 25.8401L155.176 26.5724V33.3635C153.524 53.4701 133.34 74.0824 104.747 68.6327L98.6899 67.4778L99.1216 61.3285ZM138.854 39.626C127.587 40.8329 118.299 47.1333 114.62 55.604C126.671 55.2786 135.197 47.9985 138.854 39.626Z" fill="#00312D"/>
<path d="M440.833 159.906C432.701 159.906 427.185 156.153 424.911 150.069L432.758 145.519C434.35 149.216 437.137 151.035 441.118 151.035C444.7 151.035 446.52 149.955 446.52 147.794C446.52 146.6 445.951 145.69 444.757 145.064C443.62 144.382 441.459 143.586 438.274 142.733C434.919 141.823 432.644 140.799 430.199 138.98C427.868 137.103 426.56 134.26 426.56 130.62C426.56 126.924 427.868 124.024 430.484 121.806C433.156 119.588 436.284 118.508 439.923 118.508C446.463 118.508 451.581 121.635 454.481 127.493L446.804 131.985C445.382 128.971 443.392 127.379 439.923 127.379C437.194 127.379 435.658 128.744 435.658 130.393C435.658 131.36 436.113 132.213 437.023 132.952C437.99 133.691 439.923 134.487 442.823 135.34L446.52 136.534C447.373 136.819 448.51 137.331 449.818 138.07C451.183 138.752 452.206 139.491 452.889 140.288C454.31 141.823 455.618 144.439 455.618 147.68C455.618 151.49 454.254 154.447 451.524 156.665C448.794 158.826 445.212 159.906 440.833 159.906Z" fill="#00312D"/>
<path d="M401.845 119.303H410.944V159.11H401.845V135.965L391.552 152.854H390.529L380.236 135.965V159.11H371.137V119.303H380.236L391.041 136.989L401.845 119.303Z" fill="#00312D"/>
<path d="M357.196 159.11H347.415L339.908 146.03H335.587V159.11H326.488V119.303H342.411C346.221 119.303 349.405 120.611 352.078 123.284C354.751 125.957 356.058 129.141 356.058 132.951C356.058 137.785 353.101 142.22 348.723 144.495L357.196 159.11ZM342.411 127.833H335.587V138.069H342.411C344.913 138.069 346.96 135.851 346.96 132.951C346.96 130.051 344.913 127.833 342.411 127.833Z" fill="#00312D"/>
<path d="M313.422 159.11H303.471L301.481 152.854H286.695L284.705 159.11H274.753L288.288 119.303H299.888L313.422 159.11ZM294.088 129.71L289.425 144.324H298.751L294.088 129.71Z" fill="#00312D"/>
<path d="M264.847 119.303V128.061H249.777V135.738H264.562V144.495H249.777V159.11H240.678V119.303H264.847Z" fill="#00312D"/>
</svg>
